<svg width="1440" height="346" viewBox="0 0 1440 346" fill="none" xmlns="http://www.w3.org/2000/svg">
<path d="M93.5 124L142.5 115.5H43L81.5 141.5L93.5 124Z" fill="#F7F8FA"/>
<path d="M14.5 77.4999L26.5 98.4999L46 115H0V55.9999L25 38.4999L51.5 15.9999L78.5 3.49988L93.5 9.49988L72.5 29.9999L20 57.9999L14.5 77.4999Z" fill="#F0F0F0"/>
<g filter="url(#filter0_dd_1233_1478)">
<path d="M112.372 167.217C115.113 168.244 327.329 344.789 272.458 304.038C217.588 263.286 105.684 190.433 102.692 187.505C99.7004 184.578 98.7647 177.388 100.117 172.585C101.82 166.537 109.631 166.189 112.372 167.217Z" fill="#0E0E0E"/>
<path d="M112.372 167.217C115.113 168.244 327.329 344.789 272.458 304.038C217.588 263.286 105.684 190.433 102.692 187.505C99.7004 184.578 98.7647 177.388 100.117 172.585C101.82 166.537 109.631 166.189 112.372 167.217Z" stroke="black"/>
</g>
<path d="M1467.35 113.825C1467.35 113.825 276.518 113.113 231.466 113.825C186.414 114.536 101.315 113.825 90.1908 124.467C79.0668 135.11 74.376 146.721 79.623 159.944C84.9058 173.257 119.67 193.292 108.546 169.878C97.4215 146.463 46.8072 120.92 21.7781 91.1195C-3.251 61.3188 40.1327 44.9999 40.1327 44.9999C129.5 5.49994 82.2062 -1.90006 64.5 8.49994C46.7938 18.8999 5 57.3333 -2 56.4999" stroke="#AD4747" stroke-width="7"/>
<path d="M100.5 170.5L107 177C107.167 176.5 107.6 175.3 108 174.5C108.5 173.5 109 173.5 110.5 173.5C112 173.5 112.5 174.5 113.5 175.5C114.3 176.3 114.167 178.5 114 179.5L115 180H115.5V170.5C114.667 169.5 112.9 167.4 112.5 167C112 166.5 108.5 166 105.5 167C103.1 167.8 101.167 169.667 100.5 170.5Z" fill="black"/>
<mask id="path-6-inside-1_1233_1478" fill="white">
<path d="M106.762 177.099C106.777 176.364 106.909 175.665 107.15 175.045C107.39 174.425 107.733 173.9 108.157 173.503C108.58 173.106 109.074 172.846 109.607 172.742C110.139 172.637 110.698 172.689 111.246 172.895C111.794 173.1 112.32 173.455 112.788 173.935C113.256 174.415 113.657 175.01 113.963 175.681C114.27 176.352 114.475 177.083 114.566 177.827C114.657 178.571 114.631 179.311 114.491 179.998L113.686 179.569C113.797 179.027 113.817 178.444 113.746 177.857C113.674 177.27 113.512 176.694 113.271 176.165C113.029 175.636 112.713 175.167 112.344 174.788C111.975 174.41 111.561 174.13 111.128 173.968C110.696 173.806 110.256 173.765 109.836 173.847C109.416 173.93 109.026 174.135 108.693 174.448C108.359 174.76 108.088 175.175 107.899 175.663C107.709 176.152 107.605 176.704 107.593 177.283L106.762 177.099Z"/>
</mask>
<path d="M106.762 177.099C106.777 176.364 106.909 175.665 107.15 175.045C107.39 174.425 107.733 173.9 108.157 173.503C108.58 173.106 109.074 172.846 109.607 172.742C110.139 172.637 110.698 172.689 111.246 172.895C111.794 173.1 112.32 173.455 112.788 173.935C113.256 174.415 113.657 175.01 113.963 175.681C114.27 176.352 114.475 177.083 114.566 177.827C114.657 178.571 114.631 179.311 114.491 179.998L113.686 179.569C113.797 179.027 113.817 178.444 113.746 177.857C113.674 177.27 113.512 176.694 113.271 176.165C113.029 175.636 112.713 175.167 112.344 174.788C111.975 174.41 111.561 174.13 111.128 173.968C110.696 173.806 110.256 173.765 109.836 173.847C109.416 173.93 109.026 174.135 108.693 174.448C108.359 174.76 108.088 175.175 107.899 175.663C107.709 176.152 107.605 176.704 107.593 177.283L106.762 177.099Z" fill="#EB4848" stroke="black" stroke-width="2" mask="url(#path-6-inside-1_1233_1478)"/>
<defs>
<filter id="filter0_dd_1233_1478" x="81.0942" y="156.199" width="218.84" height="180.515" filterUnits="userSpaceOnUse" color-interpolation-filters="sRGB">
<feFlood flood-opacity="0" result="BackgroundImageFix"/>
<feColorMatrix in="SourceAlpha" type="matrix" values="0 0 0 0 0 0 0 0 0 0 0 0 0 0 0 0 0 0 127 0" result="hardAlpha"/>
<feOffset dy="4"/>
<feGaussianBlur stdDeviation="2"/>
<feColorMatrix type="matrix" values="0 0 0 0 0 0 0 0 0 0 0 0 0 0 0 0 0 0 0.3 0"/>
<feBlend mode="normal" in2="BackgroundImageFix" result="effect1_dropShadow_1233_1478"/>
<feColorMatrix in="SourceAlpha" type="matrix" values="0 0 0 0 0 0 0 0 0 0 0 0 0 0 0 0 0 0 127 0" result="hardAlpha"/>
<feMorphology radius="6" operator="dilate" in="SourceAlpha" result="effect2_dropShadow_1233_1478"/>
<feOffset dy="8"/>
<feGaussianBlur stdDeviation="6"/>
<feColorMatrix type="matrix" values="0 0 0 0 0 0 0 0 0 0 0 0 0 0 0 0 0 0 0.15 0"/>
<feBlend mode="normal" in2="effect1_dropShadow_1233_1478" result="effect2_dropShadow_1233_1478"/>
<feBlend mode="normal" in="SourceGraphic" in2="effect2_dropShadow_1233_1478" result="shape"/>
</filter>
</defs>
</svg>
