<svg width="212" height="61" viewBox="0 0 212 61" fill="none" xmlns="http://www.w3.org/2000/svg">
<g clip-path="url(#clip0_1233_1495)">
<path d="M27.415 11.7515C23.536 16.0311 23.4194 14.8763 17.6642 20.33C15.4476 22.4358 13.513 25.774 12.0742 28.4232C11.6173 29.2578 11.8117 30.956 12.22 31.3344C14.1255 33.0909 16.1184 31.0918 17.0711 30.7134C21.8931 27.9768 23.4388 24.7648 27.0067 20.2135C29.1163 16.7492 30.8759 13.0713 32.4411 9.36434C33.0244 7.99606 32.9077 6.22021 32.6063 4.71607C31.955 1.54283 27.9594 0.737388 24.7513 2.81407C20.3182 5.68648 17.7128 9.83013 15.1463 13.9835C11.627 19.6895 8.68137 25.6478 7.23284 32.1205C6.84398 33.8575 6.5426 35.6334 6.51344 37.3995C6.46483 39.8255 7.262 41.6887 9.66325 42.4456C16.7017 44.6679 21.2709 43.6392 29.7287 39.1753C30.5259 38.7678 30.9731 37.3607 31.1189 36.3612C32.2272 28.6658 36.0478 22.659 43.7182 19.0199C45.6139 18.1174 47.5777 17.3314 49.5706 16.6133C52.1371 15.6817 54.6356 17.6808 54.8398 20.6987C55.1314 24.8909 54.1592 29.5974 52.0885 33.4111C51.7191 34.0904 52.2344 34.3718 53.3621 34.2165C58.1062 33.5567 57.766 33.906 58.9812 31.4121C60.1283 28.8696 60.6047 26.2689 61.7421 23.5129C60.5464 23.4935 60.5852 23.4935 59.6325 23.4838L60.7408 20.6599C63.2879 20.757 63.2879 20.9607 64.2892 17.7487C64.7364 16.3189 65.4558 14.2358 66.4474 11.4992C67.0501 9.82043 67.1376 8.61712 69.5097 8.44245C71.6193 8.27748 74.5261 7.46233 76.9857 6.86068C75.2261 11.5672 73.1456 16.5842 71.454 21.116C72.3614 21.1354 73.4405 21.1548 74.6914 21.1742C74.2636 22.6104 73.8456 23.6585 71.7749 23.6682C71.2791 23.6682 70.511 24.2019 70.3263 24.6483C68.3431 29.3742 67.1279 32.4892 65.0183 37.283C64.7169 37.9623 62.7921 40.3592 63.9684 41.4849C64.7753 42.2515 65.7377 42.5621 67.1474 42.0284C70.7444 40.6213 72.8054 38.7095 73.7678 35.5266C75.0122 31.3927 76.869 27.5886 78.3759 23.4256L75.6344 23.445C76.3927 22.5522 76.5968 22.1932 77.3065 20.7861C77.5204 20.3494 79.6494 21.0287 79.873 20.4658C80.9618 17.7293 82.4881 13.1198 83.5867 10.393C83.8492 9.7428 84.5102 9.07321 85.1227 8.89854C87.7281 8.14162 90.4113 7.60789 93.5902 6.86068C91.7431 11.6157 89.5169 16.5551 87.7573 21.0772C88.9141 21.1063 90.1002 21.0869 91.2959 21.1548C90.8196 23.9787 89.9932 24.0369 87.0281 24.0272C86.8045 24.0272 86.6101 24.6095 86.542 24.7745C84.2866 29.1801 82.1479 33.4984 80.4369 38.2049C80.1841 38.9133 80.0869 41.4946 80.3299 42.1836C80.4757 42.6106 82.4006 42.1545 82.8089 42.0284C85.4532 41.2035 89.7599 38.3796 90.1779 39.0492C91.1793 40.2913 85.3463 43.5422 80.1258 44.5902C76.0427 45.2986 73.9914 43.6975 72.4845 40.9415C69.3931 42.8532 68.7125 43.7072 65.6113 44.2312C58.9423 45.3472 54.6356 43.2608 56.4147 36.7008C56.5022 36.3903 56.7452 35.7692 56.541 35.7886C51.7385 35.6139 50.3484 35.0996 48.7248 38.6513C46.0708 43.4452 38.4199 45.9003 34.4632 44.367C33.7535 44.0953 32.8494 43.7751 32.4119 43.3093C30.6717 41.4655 30.4384 40.8056 28.9121 41.6305C24.0902 44.2312 18.6947 45.9585 13.1922 45.4345C6.88286 45.2016 1.3318 40.3301 0.3888 34.5562C-1.56525 22.5619 3.95664 12.9063 13.163 5.07512C17.5086 1.38756 22.9236 -0.388288 28.951 0.0678052C32.5091 0.33952 35.5617 3.64862 35.7659 8.14162C36.0964 15.3518 33.248 21.5818 28.2122 27.0064C26.7539 28.5785 25.0818 30.005 23.4194 31.4121C20.7557 33.6828 17.285 34.1098 13.9602 33.809C11.7631 33.6052 10.3146 31.9167 10.2368 29.8303C10.1007 26.0069 12.0451 22.6784 14.563 19.8448C17.6739 16.3416 21.407 13.3624 26.0637 11.5769C26.4234 11.441 26.8511 11.4216 27.24 11.3537C27.2886 11.4895 27.3469 11.6157 27.3955 11.7515H27.415ZM46.0708 21.2907C46.1292 21.019 45.6917 20.9219 45.5556 21.1645C43.9515 24.2019 41.5697 28.8599 40.0628 32.1302C39.1004 34.2263 38.2352 36.6038 37.788 38.8842C37.5352 40.1555 37.788 42.63 38.7407 42.8047C40.3545 43.0958 41.6572 42.7173 42.9016 40.9706C44.0001 39.4374 45.0695 37.9914 47.1499 34.2942C47.5582 33.5955 47.4513 32.2854 47.3055 31.5091C46.2069 28.8114 45.0695 25.7449 46.0708 21.2907ZM47.8499 30.0729C47.9957 30.2476 48.1415 30.2379 48.2874 30.0729C50.0081 26.9482 50.5817 24.6095 50.397 20.7181C50.3289 20.1359 50.115 19.738 50.047 19.6119C49.6387 18.9035 48.6665 18.9132 48.0929 19.4954C47.9179 19.6701 47.6555 20.1553 47.6166 20.33C47.3055 21.8535 46.8486 27.7148 47.8499 30.0729Z" fill="white"/>
<path d="M116.66 33.7896C119.557 35.1482 122.551 34.0807 123.97 31.2277C125.225 28.7143 126.449 26.1622 127.315 23.5324C127.995 21.4654 129.133 20.2233 131.476 19.8545C132.895 19.6313 134.246 19.4372 135.986 19.1073C136.638 18.9811 137.172 19.6022 136.959 20.2233C136.463 21.6498 136.084 22.7754 135.607 23.9982C134.966 25.6381 133.109 28.8987 132.749 30.7037C134.567 28.3359 137.513 24.3281 139.331 21.9603C141.683 18.8938 144.891 17.904 148.333 18.7968C150.481 19.3499 150.695 20.7667 150.277 22.1156C148.848 26.7832 147.079 30.694 144.891 35.0705C144.483 36.0798 143.637 37.6615 143.385 38.6999C143.219 39.3598 142.967 40.7377 143.414 41.1744C143.861 41.6208 145.348 41.8731 146.029 41.7081C149.208 40.9609 151.454 38.564 152.572 35.8566C154.331 31.6256 156.023 27.3655 157.51 23.0471C158.22 20.9802 159.309 19.6701 161.72 19.3305C163.586 19.0685 165.424 18.6318 167.912 18.1466C166.551 21.7371 165.453 24.7551 164.267 27.7439C162.74 31.5674 161.088 35.3423 159.639 39.1851C159.406 39.8158 159.075 41.3491 159.581 41.844C159.941 42.2031 161.574 42.1739 162.264 41.9605C166.143 40.0876 167.621 36.6329 168.612 33.1491C170.265 27.3461 172.861 21.9603 179.063 19.0879C181.017 18.1854 183.671 17.8846 185.829 18.2436C186.967 18.428 188.493 20.6308 188.474 21.9021C188.435 24.5416 187.754 27.3073 185.353 29.2093C182.864 31.1792 180.307 33.0812 177.702 34.9347C176.04 36.1186 174.961 38.7096 175.942 40.3108C177.07 42.1545 179.17 42.3971 181.105 41.8731C185.1 40.7863 188.357 38.991 189.582 34.8182C190.865 30.4514 192.634 26.201 194.394 21.97C194.764 21.0966 195.93 20.2524 196.941 19.903C199.002 19.1946 201.209 18.8259 203.882 18.1951C201.919 23.3286 200.159 27.9186 198.39 32.5184C198.565 32.5863 198.73 32.6542 198.905 32.7124C200.392 29.5004 201.938 26.298 203.357 23.0569C204.33 20.8443 205.584 18.855 208.121 17.9913C208.889 17.7293 210.153 17.8846 210.746 18.331C211.164 18.6512 211.164 20.0001 210.775 20.5435C209.064 22.9113 207.343 25.3276 205.234 27.3849C203.396 29.1801 204.009 30.9172 204.932 32.4795C205.739 33.8478 207.149 35.1676 209.307 34.0031C209.472 33.9157 209.783 34.0613 210.046 34.1098C207.664 37.0405 206.128 36.4776 201.909 30.7813C200.033 34.0807 198.254 37.1666 196.523 40.2719C194.491 43.9207 190.437 44.1245 187.881 40.728C180.998 42.6786 174.144 46.8222 166.775 40.7668C164.276 42.8629 154.049 46.9387 151.036 40.6795C150.131 41.058 148.868 41.4655 147.75 42.0769C144.882 43.6587 141.178 44.1342 138.106 43.7363C137.153 43.6101 136.191 41.7081 135.957 40.5631C135.384 37.7586 136.609 34.7794 137.863 32.1787C139.37 29.0443 140.507 25.609 141.897 22.4261C141.985 21.9991 141.956 22.0476 141.664 21.8924C139.982 24.2796 137.668 26.8706 136.171 29.3451C133.712 33.3917 131.563 37.5936 129.084 41.6305C127.587 44.0662 125.448 44.6873 123.193 43.8722C120.685 42.9697 120.685 41.155 120.918 39.2724C120.996 38.6611 121.472 37.3219 121.628 36.6038C121.764 35.9439 121.307 35.3131 120.646 35.2161C117.34 34.7503 116.067 34.9832 114.842 36.497C113.374 38.3214 112.752 40.0973 110.234 42.3292C107.648 44.8038 103.273 44.8717 99.9969 44.7067C98.0331 44.6097 95.7291 41.9507 95.661 40.1264C95.3402 31.315 99.1997 24.1146 107.609 19.7089C110.409 18.2436 111.05 18.6415 114.56 16.4095C116.329 16.3513 117.807 17.1374 118.546 17.904C119.557 18.9423 119.907 20.2621 119.722 21.5915C119.158 25.512 118.361 30.7037 116.67 33.7799L116.66 33.7896ZM110.545 22.5134C110.905 21.1257 110.487 21.3295 109.699 22.5911C108.669 24.2505 107.959 26.2786 106.715 27.9283C104.673 32.1399 103.944 33.4305 102.622 37.1278C102.262 38.137 101.795 42.5524 104.294 43.0085C105.976 43.0279 106.287 41.7761 106.86 41.1744C108.338 39.6024 109.728 37.9138 110.768 36.0895C111.488 34.8376 112.12 33.6828 112.003 32.334C111.984 32.1302 111.799 32.0914 111.731 31.907C110.73 29.4227 109.544 26.4339 110.545 22.5328V22.5134ZM177.099 31.907C176.778 32.4116 176.934 32.8095 177.585 32.266C181.124 28.9764 183.506 25.609 185.363 21.3004C185.489 21.019 185.411 20.6599 185.275 20.2815C185.032 19.5925 184.206 19.3014 183.574 19.6604C183.263 19.8351 183 20.0292 182.854 20.2815C180.706 24.2505 179.151 27.8895 177.09 31.907H177.099ZM113.549 18.9617C111.595 21.2907 112.023 27.1229 112.577 28.7046C112.849 29.4616 113.238 29.3548 113.432 28.6561C114.239 25.7643 115.017 22.8337 114.365 19.1752C114.297 18.787 113.792 18.6609 113.539 18.9617H113.549Z" fill="white"/>
<path d="M162.925 9.74285C162.663 7.33623 163.567 5.29837 165.754 3.93009C168.535 2.19306 172.044 3.83305 172.122 6.90925C172.161 8.34546 171.937 9.8496 171.441 11.2082C170.625 13.4498 167.757 15.1772 165.764 14.5949C163.256 13.8768 162.702 11.9457 162.915 9.73315L162.925 9.74285Z" fill="white"/>
<path d="M174.466 12.9958L176.28 12.8194C176.389 13.4282 176.61 13.8754 176.941 14.1609C177.277 14.4464 177.729 14.5892 178.295 14.5892C178.896 14.5892 179.347 14.4632 179.649 14.2113C179.956 13.9552 180.109 13.6571 180.109 13.317C180.109 13.0986 180.044 12.9139 179.914 12.7627C179.788 12.6074 179.566 12.473 179.246 12.3596C179.028 12.2841 178.531 12.1497 177.754 11.9565C176.754 11.7088 176.053 11.4044 175.65 11.0433C175.083 10.5352 174.8 9.91592 174.8 9.18533C174.8 8.71506 174.932 8.27629 175.197 7.869C175.465 7.45752 175.85 7.14471 176.349 6.93057C176.853 6.71643 177.46 6.60936 178.169 6.60936C179.328 6.60936 180.2 6.86339 180.783 7.37145C181.371 7.8795 181.68 8.55761 181.709 9.40577L179.845 9.48765C179.765 9.01318 179.593 8.67308 179.328 8.46733C179.068 8.25739 178.675 8.15242 178.151 8.15242C177.609 8.15242 177.185 8.26369 176.878 8.48623C176.681 8.62899 176.582 8.82003 176.582 9.05937C176.582 9.27771 176.675 9.46455 176.859 9.61991C177.095 9.81725 177.666 10.023 178.573 10.2371C179.479 10.4513 180.149 10.6738 180.582 10.9047C181.018 11.1315 181.358 11.4443 181.602 11.8432C181.85 12.2379 181.974 12.727 181.974 13.3107C181.974 13.8397 181.827 14.3352 181.533 14.797C181.239 15.2589 180.823 15.6032 180.286 15.8299C179.748 16.0525 179.078 16.1638 178.276 16.1638C177.109 16.1638 176.213 15.895 175.587 15.3576C174.962 14.8159 174.588 14.0287 174.466 12.9958ZM183.529 16V14.2302H185.299V16H183.529ZM187.138 16V6.76682H191.062C192.049 6.76682 192.764 6.85079 193.21 7.01875C193.659 7.1825 194.018 7.47642 194.287 7.9005C194.555 8.32458 194.69 8.80954 194.69 9.35538C194.69 10.0482 194.486 10.6213 194.079 11.0748C193.671 11.5241 193.063 11.8075 192.252 11.9251C192.655 12.1602 192.987 12.4184 193.247 12.6997C193.512 12.9811 193.867 13.4807 194.312 14.1987L195.439 16H193.21L191.862 13.9909C191.383 13.2729 191.056 12.8215 190.879 12.6368C190.703 12.4478 190.516 12.3197 190.319 12.2526C190.121 12.1812 189.809 12.1455 189.38 12.1455H189.002V16H187.138ZM189.002 10.6717H190.382C191.276 10.6717 191.834 10.6339 192.057 10.5583C192.28 10.4828 192.454 10.3526 192.58 10.1679C192.706 9.98311 192.769 9.75217 192.769 9.47505C192.769 9.16434 192.685 8.91451 192.517 8.72556C192.353 8.53242 192.12 8.41065 191.818 8.36027C191.666 8.33927 191.213 8.32877 190.457 8.32877H189.002V10.6717ZM196.441 16V14.2302H198.21V16H196.441ZM200.025 16V7.48047H201.759V14.5527H206.071V16H200.025Z" fill="white"/>
<path d="M47.2878 49.7644L46.9794 51.2265H43.2843L42.5362 54.7559H40.7886L42.5705 46.3492H48.5385L48.2244 47.8284H44.0039L43.5927 49.7644H47.2878ZM51.9822 53.8764C51.9632 53.8954 51.9137 53.9525 51.8337 54.0477C51.7538 54.1429 51.6643 54.2266 51.5653 54.299C51.2607 54.5274 50.979 54.6835 50.7201 54.7673C50.465 54.851 50.1775 54.8929 49.8577 54.8929C48.9363 54.8929 48.3862 54.5617 48.2072 53.8992C48.1082 53.5337 48.1349 52.995 48.2872 52.283L49.081 48.5309H50.7486L49.9548 52.283C49.8787 52.6371 49.8634 52.9036 49.9091 53.0825C49.9891 53.3985 50.2461 53.5565 50.6801 53.5565C51.236 53.5565 51.6643 53.3319 51.9651 52.8826C52.125 52.639 52.2468 52.3173 52.3306 51.9175L53.0502 48.5309H54.7006L53.3814 54.7559H51.7995L51.9822 53.8764ZM59.732 50.9695C59.8044 50.642 59.8139 50.3907 59.7606 50.2156C59.6692 49.8958 59.3989 49.7359 58.9496 49.7359C58.3976 49.7359 57.9693 49.97 57.6647 50.4383C57.5048 50.6858 57.3848 51.0018 57.3049 51.3864L56.591 54.7559H54.9691L56.2883 48.5423H57.8588L57.6647 49.4503C57.9426 49.1305 58.1901 48.9002 58.4071 48.7593C58.7954 48.508 59.2466 48.3824 59.7606 48.3824C60.404 48.3824 60.8933 48.5518 61.2283 48.8906C61.5672 49.2257 61.6548 49.7835 61.491 50.564L60.6001 54.7559H58.9325L59.732 50.9695ZM66.7109 48.6279C66.966 48.7955 67.1545 49.0258 67.2763 49.319L67.9045 46.3492H69.555L67.7732 54.7559H66.1912L66.374 53.8935C66.0618 54.2628 65.7381 54.5312 65.4031 54.6987C65.0718 54.8663 64.6854 54.95 64.2437 54.95C63.5165 54.95 62.9664 54.6569 62.5933 54.0705C62.224 53.4804 62.1364 52.7246 62.3306 51.8033C62.559 50.741 62.9816 49.9053 63.5984 49.2961C64.219 48.687 64.9386 48.3824 65.7572 48.3824C66.1341 48.3824 66.452 48.4642 66.7109 48.6279ZM65.82 49.8044C65.3441 49.8044 64.9557 49.9853 64.6549 50.347C64.358 50.7048 64.1524 51.1503 64.0382 51.6833C63.9163 52.2582 63.9315 52.7189 64.0838 53.0654C64.2361 53.4081 64.5426 53.5794 65.0033 53.5794C65.464 53.5794 65.8504 53.4081 66.1626 53.0654C66.4787 52.7227 66.6938 52.2792 66.808 51.7347C66.9679 50.9733 66.8918 50.4288 66.5796 50.1014C66.3854 49.9034 66.1322 49.8044 65.82 49.8044ZM72.5019 50.9695C72.8141 50.9314 73.0406 50.8838 73.1815 50.8267C73.4328 50.7277 73.5813 50.5735 73.6269 50.3641C73.6802 50.109 73.6288 49.9339 73.4727 49.8387C73.3166 49.7397 73.0673 49.6902 72.7246 49.6902C72.3401 49.6902 72.0469 49.7854 71.8451 49.9757C71.7042 50.1166 71.5881 50.307 71.4967 50.5468H69.9262C70.0785 50.0024 70.326 49.555 70.6686 49.2048C71.2169 48.6565 72.0145 48.3824 73.0616 48.3824C73.7431 48.3824 74.3199 48.5175 74.792 48.7879C75.2641 49.0582 75.4202 49.5684 75.2603 50.3184L74.6492 53.1739C74.6073 53.3719 74.5616 53.6118 74.5121 53.8935C74.4779 54.1067 74.4779 54.2514 74.5121 54.3275C74.5502 54.4037 74.6169 54.4665 74.712 54.516L74.6663 54.7559H72.8959C72.8731 54.6302 72.8636 54.5122 72.8674 54.4018C72.8712 54.2914 72.8826 54.1657 72.9016 54.0248C72.6237 54.2685 72.321 54.476 71.9936 54.6474C71.5976 54.8491 71.1788 54.95 70.7372 54.95C70.1737 54.95 69.7416 54.7901 69.4408 54.4703C69.1438 54.1467 69.0581 53.6898 69.1838 53.0997C69.3475 52.3344 69.7606 51.7804 70.4231 51.4378C70.7848 51.2512 71.2892 51.1179 71.9365 51.038L72.5019 50.9695ZM72.5304 51.9974L72.1535 52.066C71.7956 52.1269 71.5329 52.2011 71.3654 52.2887C71.0836 52.4372 70.9104 52.6675 70.8457 52.9797C70.7848 53.2577 70.8171 53.4595 70.9428 53.5851C71.0722 53.7069 71.2474 53.7679 71.4682 53.7679C71.8185 53.7679 72.163 53.6651 72.5019 53.4595C72.8407 53.2539 73.0749 52.8788 73.2043 52.3344L73.33 51.729C73.2157 51.7937 73.1015 51.8471 72.9873 51.8889C72.8731 51.927 72.7208 51.9632 72.5304 51.9974ZM80.3716 48.6279C80.6267 48.7955 80.8152 49.0258 80.937 49.319L81.5652 46.3492H83.2157L81.4339 54.7559H79.8519L80.0347 53.8935C79.7225 54.2628 79.3989 54.5312 79.0638 54.6987C78.7326 54.8663 78.3461 54.95 77.9045 54.95C77.1773 54.95 76.6271 54.6569 76.254 54.0705C75.8847 53.4804 75.7971 52.7246 75.9913 51.8033C76.2197 50.741 76.6424 49.9053 77.2591 49.2961C77.8797 48.687 78.5993 48.3824 79.4179 48.3824C79.7948 48.3824 80.1127 48.4642 80.3716 48.6279ZM79.4807 49.8044C79.0048 49.8044 78.6165 49.9853 78.3157 50.347C78.0187 50.7048 77.8131 51.1503 77.6989 51.6833C77.5771 52.2582 77.5923 52.7189 77.7446 53.0654C77.8969 53.4081 78.2034 53.5794 78.6641 53.5794C79.1247 53.5794 79.5112 53.4081 79.8234 53.0654C80.1394 52.7227 80.3545 52.2792 80.4687 51.7347C80.6286 50.9733 80.5525 50.4288 80.2403 50.1014C80.0461 49.9034 79.7929 49.8044 79.4807 49.8044ZM86.1626 50.9695C86.4748 50.9314 86.7014 50.8838 86.8422 50.8267C87.0935 50.7277 87.242 50.5735 87.2877 50.3641C87.341 50.109 87.2896 49.9339 87.1335 49.8387C86.9774 49.7397 86.728 49.6902 86.3853 49.6902C86.0008 49.6902 85.7076 49.7854 85.5058 49.9757C85.365 50.1166 85.2489 50.307 85.1575 50.5468H83.5869C83.7392 50.0024 83.9867 49.555 84.3294 49.2048C84.8776 48.6565 85.6753 48.3824 86.7223 48.3824C87.4038 48.3824 87.9806 48.5175 88.4527 48.7879C88.9248 49.0582 89.0809 49.5684 88.921 50.3184L88.31 53.1739C88.2681 53.3719 88.2224 53.6118 88.1729 53.8935C88.1386 54.1067 88.1386 54.2514 88.1729 54.3275C88.211 54.4037 88.2776 54.4665 88.3728 54.516L88.3271 54.7559H86.5567C86.5338 54.6302 86.5243 54.5122 86.5281 54.4018C86.5319 54.2914 86.5433 54.1657 86.5624 54.0248C86.2844 54.2685 85.9818 54.476 85.6543 54.6474C85.2584 54.8491 84.8396 54.95 84.3979 54.95C83.8344 54.95 83.4023 54.7901 83.1015 54.4703C82.8045 54.1467 82.7189 53.6898 82.8445 53.0997C83.0082 52.3344 83.4213 51.7804 84.0838 51.4378C84.4455 51.2512 84.95 51.1179 85.5972 51.038L86.1626 50.9695ZM86.1912 51.9974L85.8142 52.066C85.4564 52.1269 85.1936 52.2011 85.0261 52.2887C84.7444 52.4372 84.5711 52.6675 84.5064 52.9797C84.4455 53.2577 84.4779 53.4595 84.6035 53.5851C84.733 53.7069 84.9081 53.7679 85.1289 53.7679C85.4792 53.7679 85.8238 53.6651 86.1626 53.4595C86.5015 53.2539 86.7356 52.8788 86.8651 52.3344L86.9907 51.729C86.8765 51.7937 86.7623 51.8471 86.6481 51.8889C86.5338 51.927 86.3815 51.9632 86.1912 51.9974ZM96.3453 53.3567C96.4786 53.2539 96.61 53.1111 96.7394 52.9283H98.4013C98.2795 53.2976 98.0073 53.6727 97.5846 54.0534C96.9222 54.6588 96.1112 54.9615 95.1517 54.9615C94.3598 54.9615 93.7145 54.7064 93.2157 54.1962C92.7208 53.686 92.5951 52.856 92.8388 51.7062C93.0672 50.6287 93.5146 49.8025 94.1809 49.2276C94.851 48.6527 95.622 48.3652 96.4938 48.3652C97.0116 48.3652 97.4571 48.4623 97.8302 48.6565C98.2071 48.8507 98.4851 49.1572 98.664 49.576C98.8315 49.9453 98.8982 50.3736 98.8639 50.8609C98.8487 51.1465 98.7801 51.5577 98.6583 52.0945H94.3979C94.2875 52.7189 94.3903 53.1568 94.7063 53.4081C94.8967 53.5642 95.1498 53.6422 95.4659 53.6422C95.8009 53.6422 96.0941 53.547 96.3453 53.3567ZM96.2083 49.7073C95.8314 49.7073 95.5134 49.8254 95.2545 50.0614C94.9995 50.2975 94.8034 50.6173 94.6663 51.0209H97.1963C97.261 50.5906 97.1982 50.2651 97.0078 50.0443C96.8213 49.8196 96.5548 49.7073 96.2083 49.7073ZM103.97 50.9695C104.042 50.642 104.051 50.3907 103.998 50.2156C103.907 49.8958 103.636 49.7359 103.187 49.7359C102.635 49.7359 102.207 49.97 101.902 50.4383C101.742 50.6858 101.622 51.0018 101.542 51.3864L100.828 54.7559H99.2066L100.526 48.5423H102.096L101.902 49.4503C102.18 49.1305 102.428 48.9002 102.645 48.7593C103.033 48.508 103.484 48.3824 103.998 48.3824C104.642 48.3824 105.131 48.5518 105.466 48.8906C105.805 49.2257 105.892 49.7835 105.729 50.564L104.838 54.7559H103.17L103.97 50.9695ZM113.261 53.3567C113.395 53.2539 113.526 53.1111 113.655 52.9283H115.317C115.195 53.2976 114.923 53.6727 114.501 54.0534C113.838 54.6588 113.027 54.9615 112.068 54.9615C111.276 54.9615 110.63 54.7064 110.132 54.1962C109.637 53.686 109.511 52.856 109.755 51.7062C109.983 50.6287 110.431 49.8025 111.097 49.2276C111.767 48.6527 112.538 48.3652 113.41 48.3652C113.928 48.3652 114.373 48.4623 114.746 48.6565C115.123 48.8507 115.401 49.1572 115.58 49.576C115.748 49.9453 115.814 50.3736 115.78 50.8609C115.765 51.1465 115.696 51.5577 115.574 52.0945H111.314C111.203 52.7189 111.306 53.1568 111.622 53.4081C111.813 53.5642 112.066 53.6422 112.382 53.6422C112.717 53.6422 113.01 53.547 113.261 53.3567ZM113.124 49.7073C112.747 49.7073 112.429 49.8254 112.171 50.0614C111.915 50.2975 111.719 50.6173 111.582 51.0209H114.112C114.177 50.5906 114.114 50.2651 113.924 50.0443C113.737 49.8196 113.471 49.7073 113.124 49.7073ZM116.145 54.7559L117.933 46.3378H119.561L117.773 54.7559H116.145ZM125.866 50.9695C126.178 50.9314 126.404 50.8838 126.545 50.8267C126.796 50.7277 126.945 50.5735 126.991 50.3641C127.044 50.109 126.993 49.9339 126.836 49.8387C126.68 49.7397 126.431 49.6902 126.088 49.6902C125.704 49.6902 125.411 49.7854 125.209 49.9757C125.068 50.1166 124.952 50.307 124.86 50.5468H123.29C123.442 50.0024 123.69 49.555 124.032 49.2048C124.581 48.6565 125.378 48.3824 126.425 48.3824C127.107 48.3824 127.684 48.5175 128.156 48.7879C128.628 49.0582 128.784 49.5684 128.624 50.3184L128.013 53.1739C127.971 53.3719 127.925 53.6118 127.876 53.8935C127.842 54.1067 127.842 54.2514 127.876 54.3275C127.914 54.4037 127.981 54.4665 128.076 54.516L128.03 54.7559H126.26C126.237 54.6302 126.227 54.5122 126.231 54.4018C126.235 54.2914 126.246 54.1657 126.265 54.0248C125.987 54.2685 125.685 54.476 125.357 54.6474C124.961 54.8491 124.543 54.95 124.101 54.95C123.537 54.95 123.105 54.7901 122.804 54.4703C122.507 54.1467 122.422 53.6898 122.547 53.0997C122.711 52.3344 123.124 51.7804 123.787 51.4378C124.148 51.2512 124.653 51.1179 125.3 51.038L125.866 50.9695ZM125.894 51.9974L125.517 52.066C125.159 52.1269 124.897 52.2011 124.729 52.2887C124.447 52.4372 124.274 52.6675 124.209 52.9797C124.148 53.2577 124.181 53.4595 124.306 53.5851C124.436 53.7069 124.611 53.7679 124.832 53.7679C125.182 53.7679 125.527 53.6651 125.866 53.4595C126.204 53.2539 126.439 52.8788 126.568 52.3344L126.694 51.729C126.579 51.7937 126.465 51.8471 126.351 51.8889C126.237 51.927 126.084 51.9632 125.894 51.9974ZM133.907 50.9695C133.979 50.642 133.989 50.3907 133.935 50.2156C133.844 49.8958 133.574 49.7359 133.124 49.7359C132.572 49.7359 132.144 49.97 131.839 50.4383C131.679 50.6858 131.559 51.0018 131.479 51.3864L130.766 54.7559H129.144L130.463 48.5423H132.033L131.839 49.4503C132.117 49.1305 132.365 48.9002 132.582 48.7593C132.97 48.508 133.421 48.3824 133.935 48.3824C134.579 48.3824 135.068 48.5518 135.403 48.8906C135.742 49.2257 135.829 49.7835 135.666 50.564L134.775 54.7559H133.107L133.907 50.9695ZM134.089 46.4863C134.238 46.5396 134.335 46.5739 134.381 46.5891C134.43 46.6043 134.485 46.612 134.546 46.612C134.729 46.612 134.866 46.5644 134.958 46.4692C135.053 46.3702 135.133 46.2541 135.197 46.1208H135.957C135.805 46.5206 135.597 46.8556 135.334 47.1259C135.072 47.3963 134.744 47.5314 134.352 47.5314C134.234 47.5314 134.074 47.5029 133.872 47.4458C133.751 47.4153 133.636 47.381 133.53 47.343L133.101 47.1888C133.041 47.1659 132.98 47.1507 132.919 47.1431C132.862 47.1317 132.803 47.1259 132.742 47.1259C132.597 47.1259 132.471 47.1678 132.365 47.2516C132.254 47.3392 132.163 47.4591 132.091 47.6114H131.348C131.516 47.2192 131.689 46.9223 131.868 46.7205C132.188 46.3588 132.587 46.1779 133.067 46.1779C133.17 46.1779 133.267 46.1893 133.358 46.2122C133.454 46.235 133.534 46.2598 133.598 46.2864L134.089 46.4863ZM142.627 49.319C143.012 49.9776 143.109 50.7562 142.919 51.6548C142.724 52.5685 142.294 53.351 141.628 54.002C140.965 54.6493 140.099 54.9729 139.029 54.9729C137.96 54.9729 137.23 54.6493 136.842 54.002C136.458 53.351 136.362 52.5685 136.557 51.6548C136.747 50.7562 137.175 49.9776 137.842 49.319C138.508 48.6603 139.376 48.331 140.446 48.331C141.516 48.331 142.243 48.6603 142.627 49.319ZM140.143 49.7073C139.667 49.7073 139.266 49.8768 138.938 50.2156C138.611 50.5507 138.38 51.0304 138.247 51.6548C138.114 52.2792 138.139 52.7608 138.321 53.0997C138.508 53.4385 138.839 53.6079 139.315 53.6079C139.791 53.6079 140.193 53.4385 140.52 53.0997C140.847 52.7608 141.078 52.2792 141.211 51.6548C141.344 51.0304 141.318 50.5507 141.131 50.2156C140.948 49.8768 140.619 49.7073 140.143 49.7073ZM150.623 46.8061C150.699 46.6576 150.745 46.5472 150.76 46.4749H152.113L150.354 54.7559H148.687L149.898 49.0448H147.95L148.184 47.9369C148.706 47.9141 149.073 47.8798 149.286 47.8341C149.629 47.7618 149.926 47.6171 150.177 47.4001C150.352 47.2516 150.501 47.0536 150.623 46.8061ZM157.099 52.7684C157.289 52.441 157.467 51.9632 157.63 51.335C157.44 51.5215 157.251 51.6643 157.065 51.7633C156.722 51.946 156.328 52.0374 155.883 52.0374C155.224 52.0374 154.687 51.8109 154.272 51.3578C153.857 50.9009 153.741 50.2442 153.924 49.3875C154.114 48.5004 154.523 47.7827 155.152 47.2345C155.78 46.6824 156.503 46.4064 157.322 46.4064C158.582 46.4064 159.328 46.9641 159.561 48.0797C159.694 48.7117 159.65 49.5436 159.429 50.5754C159.216 51.5767 158.911 52.4124 158.515 53.0825C157.758 54.358 156.728 54.9957 155.426 54.9957C154.805 54.9957 154.285 54.813 153.867 54.4475C153.452 54.0782 153.282 53.5413 153.358 52.837H154.98C154.965 53.0806 155.024 53.2786 155.157 53.4309C155.294 53.5832 155.502 53.6593 155.78 53.6593C156.317 53.6593 156.756 53.3624 157.099 52.7684ZM155.609 49.239C155.502 49.7302 155.523 50.0995 155.671 50.347C155.82 50.5906 156.102 50.7125 156.517 50.7125C156.741 50.7125 156.966 50.6477 157.19 50.5183C157.609 50.2822 157.882 49.8729 158.007 49.2904C158.106 48.8221 158.076 48.4509 157.916 48.1768C157.756 47.9026 157.486 47.7656 157.105 47.7656C156.827 47.7656 156.572 47.8436 156.34 47.9997C155.974 48.2434 155.73 48.6565 155.609 49.239ZM162.462 48.6222C162.271 48.9497 162.085 49.4332 161.902 50.0728C162.153 49.833 162.424 49.6578 162.713 49.5474C163.006 49.437 163.324 49.3818 163.667 49.3818C164.402 49.3818 164.95 49.6312 165.312 50.1299C165.677 50.6287 165.776 51.2664 165.609 52.0431C165.445 52.816 165.07 53.4975 164.483 54.0877C163.897 54.6778 163.119 54.9729 162.148 54.9729C161.104 54.9729 160.429 54.5369 160.12 53.6651C159.88 52.9835 159.875 52.104 160.103 51.0266C160.24 50.3945 160.377 49.8806 160.514 49.4846C160.758 48.7802 161.066 48.1939 161.439 47.7256C161.759 47.3258 162.136 47.0041 162.57 46.7604C163.008 46.5168 163.494 46.3949 164.027 46.3949C164.796 46.3949 165.367 46.5929 165.74 46.9889C166.113 47.381 166.258 47.9045 166.174 48.5594H164.552C164.582 48.4262 164.561 48.2796 164.489 48.1197C164.371 47.8608 164.135 47.7313 163.781 47.7313C163.252 47.7313 162.812 48.0283 162.462 48.6222ZM162.239 50.9352C161.866 51.1827 161.62 51.5824 161.502 52.1345C161.407 52.58 161.449 52.9436 161.628 53.2253C161.811 53.5071 162.087 53.6479 162.456 53.6479C162.818 53.6479 163.13 53.5128 163.393 53.2424C163.659 52.9683 163.838 52.6142 163.929 52.1802C164.032 51.6967 163.992 51.3273 163.81 51.0723C163.631 50.8134 163.37 50.6839 163.027 50.6839C162.749 50.6839 162.486 50.7677 162.239 50.9352ZM168.544 49.7759C168.83 49.6121 169.048 49.5036 169.201 49.4503C169.456 49.3628 169.753 49.319 170.092 49.319C170.777 49.319 171.325 49.5493 171.736 50.01C172.148 50.4707 172.26 51.1408 172.073 52.0203C171.913 52.7856 171.523 53.469 170.903 54.0705C170.282 54.6721 169.482 54.9729 168.504 54.9729C167.716 54.9729 167.114 54.7616 166.699 54.339C166.284 53.9163 166.13 53.3167 166.237 52.54H167.859C167.847 52.8941 167.912 53.1682 168.053 53.3624C168.197 53.5527 168.445 53.6479 168.795 53.6479C169.199 53.6479 169.536 53.5071 169.806 53.2253C170.076 52.9398 170.257 52.5819 170.349 52.1516C170.44 51.729 170.417 51.373 170.28 51.0837C170.147 50.7905 169.871 50.6439 169.452 50.6439C169.254 50.6439 169.077 50.6687 168.921 50.7182C168.647 50.8096 168.418 50.979 168.236 51.2265L166.785 51.1579L168.344 46.5834H172.907L172.61 47.9655H169.224L168.544 49.7759Z" fill="white"/>
</g>
<defs>
<clipPath id="clip0_1233_1495">
<rect width="212" height="61" fill="white"/>
</clipPath>
</defs>
</svg>
