<svg width="34" height="34" viewBox="0 0 34 34" fill="none" xmlns="http://www.w3.org/2000/svg">
<path d="M32 24.38V28.88C32.0017 29.2978 31.9161 29.7113 31.7488 30.094C31.5814 30.4768 31.3359 30.8204 31.0281 31.1028C30.7203 31.3852 30.3569 31.6002 29.9611 31.7341C29.5654 31.8679 29.1461 31.9176 28.73 31.88C24.1142 31.3785 19.6805 29.8012 15.785 27.275C12.1607 24.972 9.088 21.8993 6.78499 18.275C4.24996 14.3618 2.67236 9.90652 2.17999 5.27002C2.14251 4.85522 2.1918 4.43716 2.32474 4.04246C2.45768 3.64776 2.67135 3.28506 2.95214 2.97746C3.23293 2.66985 3.5747 2.42409 3.95568 2.25581C4.33666 2.08753 4.7485 2.00042 5.16499 2.00002H9.66499C10.393 1.99286 11.0987 2.25064 11.6506 2.72532C12.2026 3.2 12.5631 3.85919 12.665 4.58002C12.8549 6.02012 13.2072 7.43411 13.715 8.79502C13.9168 9.33191 13.9605 9.9154 13.8409 10.4763C13.7212 11.0373 13.4433 11.5522 13.04 11.96L11.135 13.865C13.2703 17.6203 16.3797 20.7297 20.135 22.865L22.04 20.96C22.4478 20.5567 22.9627 20.2788 23.5237 20.1592C24.0846 20.0395 24.6681 20.0832 25.205 20.285C26.5659 20.7928 27.9799 21.1451 29.42 21.335C30.1486 21.4378 30.8141 21.8048 31.2898 22.3663C31.7655 22.9277 32.0182 23.6444 32 24.38Z" stroke="#1E1E1E" stroke-width="3" stroke-linecap="round" stroke-linejoin="round"/>
</svg>
