<svg width="30" height="36" viewBox="0 0 30 36" fill="none" xmlns="http://www.w3.org/2000/svg">
<g clip-path="url(#clip0_458_107)">
<path d="M7.3212 35.0868C7.36286 34.6218 7.39858 34.1821 7.43727 33.7367C6.7706 33.5966 6.11286 33.4734 5.46405 33.3193C3.99084 32.9692 2.52358 32.6022 1.05334 32.2409C0.752744 32.1681 0.458101 32.084 0.160482 32.0112C0.038458 31.9804 -0.0151134 31.9328 0.0027437 31.8207C0.0890532 31.2073 0.16941 30.5938 0.249768 29.9776C0.347982 29.2465 0.44322 28.5154 0.541434 27.7843C0.639649 27.0588 0.737863 26.3333 0.836077 25.6078C0.955125 24.7199 1.0712 23.8291 1.19024 22.9412C1.30334 22.0812 1.42239 21.2213 1.53548 20.3613C1.66941 19.3501 1.80334 18.3361 1.93727 17.3249C2.05036 16.4706 2.16941 15.6162 2.27953 14.7619C2.40453 13.8151 2.5206 12.8655 2.6456 11.9188C2.76762 11.0056 2.89858 10.0952 3.0206 9.18207C3.11882 8.45658 3.2081 7.73109 3.30334 7.0056C3.38965 6.33333 3.47893 5.66106 3.56822 4.9888C3.68727 4.10084 3.80929 3.21289 3.93132 2.32493C3.93132 2.31373 3.94024 2.30252 3.93727 2.29132C3.86584 1.88515 4.15751 1.73669 4.59203 1.64706C5.6456 1.43697 6.68132 1.17367 7.74084 0.991597C8.5712 0.848739 9.42536 0.792717 10.2706 0.697479C10.3063 0.694678 10.3391 0.689076 10.3896 0.680672V0C13.4254 0 16.4462 0 19.4938 0C19.4938 0.246499 19.4938 0.495798 19.4938 0.742297C20.2706 0.843137 21.0236 0.918767 21.7617 1.04482C22.8093 1.22129 23.848 1.43137 24.8867 1.63025C25.1129 1.67227 25.3331 1.72829 25.5504 1.79552C25.6099 1.81513 25.6813 1.88515 25.6902 1.93557C25.8569 3.04482 26.0117 4.15686 26.1724 5.26611C26.342 6.42857 26.5147 7.59104 26.6813 8.7535C26.8361 9.81793 26.9819 10.8796 27.1337 11.944C27.3004 13.1064 27.476 14.2689 27.6426 15.4314C27.7527 16.2017 27.8539 16.9748 27.967 17.7451C28.1039 18.6919 28.2468 19.6387 28.3837 20.5826C28.4938 21.3529 28.601 22.126 28.7111 22.8964C28.8331 23.7367 28.9551 24.5798 29.0771 25.4202C29.2051 26.3137 29.3272 27.2073 29.4581 28.1036C29.595 29.056 29.7408 30.0084 29.8777 30.9608C29.9194 31.2521 29.9492 31.5462 29.9938 31.8375C30.0117 31.9468 29.9492 31.9832 29.8391 32.0112C28.7379 32.2941 27.6397 32.5966 26.5325 32.8599C25.2676 33.1597 23.9938 33.4314 22.723 33.7087C22.5861 33.7395 22.5533 33.7871 22.5533 33.8908C22.5593 34.2969 22.5504 34.7031 22.5593 35.1092C22.5593 35.2297 22.5027 35.2689 22.3688 35.2941C20.9819 35.5462 19.5861 35.7591 18.1724 35.8795C16.6516 36.0056 15.1307 36.0392 13.6039 35.9468C12.2795 35.8655 10.967 35.7143 9.66644 35.507C8.88965 35.3838 8.11584 35.2325 7.3212 35.0896V35.0868ZM22.0891 33.9356C17.345 34.8207 12.6188 34.7899 7.8837 33.93C7.85691 34.2437 7.83608 34.5154 7.81524 34.7759C12.5712 35.8095 17.3152 35.93 22.092 34.9468C22.092 34.6274 22.092 34.2997 22.092 33.9356H22.0891ZM10.8718 1.46779C13.601 1.46779 16.3093 1.46779 19.0266 1.46779C19.0266 1.09804 19.0266 0.739496 19.0266 0.369748C16.3063 0.369748 13.595 0.369748 10.8718 0.369748C10.8718 0.736695 10.8718 1.09244 10.8718 1.46779Z" fill="#1D1D1B"/>
<path d="M28.4464 31.7731C27.7262 31.9636 26.9821 32.1596 26.25 32.3333C25.2351 32.5742 24.1935 32.8011 23.1845 33.0196L22.4643 33.1764C22.3482 33.2017 22.1548 33.2577 21.994 33.3725L21.8631 33.3977C17.4345 34.2241 12.878 34.2325 8.3125 33.4285L8.32143 33.3361L7.69345 33.2045C7.48214 33.1596 7.27083 33.1176 7.05952 33.0756C6.60416 32.9832 6.17559 32.8963 5.75 32.7955C4.60714 32.5238 3.44643 32.2381 2.3244 31.9608L1.34821 31.7199C1.20238 31.6834 1.05952 31.647 0.916665 31.6078C0.90476 31.605 0.892856 31.6022 0.880951 31.5994C0.934522 31.2129 0.988094 30.8179 1.03869 30.4229L1.38095 27.8431C1.38095 27.8431 1.62202 26.0616 1.67559 25.6666L2.02976 23L2.375 20.4201L2.77678 17.3837L2.92262 16.2941C2.98809 15.8039 3.05655 15.3109 3.11905 14.8207C3.17559 14.3893 3.23214 13.9552 3.28571 13.5238C3.35119 13.0084 3.41667 12.493 3.48512 11.9776C3.55059 11.4846 3.61905 10.9916 3.6875 10.4986C3.74405 10.0784 3.80357 9.66104 3.86012 9.24087C3.91964 8.78989 3.97917 8.33891 4.03571 7.88793L4.16667 6.87673C4.24702 6.26608 4.3244 5.65544 4.40774 5.04759C4.49107 4.43975 4.76786 2.40894 4.76786 2.40894C4.77678 2.37252 4.78274 2.33891 4.78274 2.3053V2.27729C4.78274 2.27729 4.77381 2.22126 4.77381 2.21286C4.79167 2.20726 4.8125 2.20446 4.83928 2.19886C5.2619 2.11482 5.68155 2.02238 6.10119 1.92995C6.73809 1.78989 7.34226 1.65544 7.95536 1.549C8.48512 1.45656 9.03274 1.40334 9.61309 1.34731C9.75297 1.33331 9.88988 1.3193 10.0298 1.3053V2.03919H19.872V1.36972C19.9375 1.37813 20 1.38653 20.0655 1.39213C20.5863 1.45656 21.0774 1.51538 21.5595 1.59661C22.3512 1.73107 23.1577 1.88793 23.9405 2.03919L24.6577 2.17925C24.7321 2.19325 24.8095 2.21006 24.8869 2.22967C24.9821 2.87673 25.0744 3.52659 25.1696 4.17365L25.3363 5.32771C25.4137 5.86552 25.494 6.40334 25.5714 6.94395C25.6637 7.5686 25.7559 8.19325 25.8452 8.8151C25.9226 9.34731 25.997 9.87953 26.0714 10.4117C26.1458 10.944 26.2202 11.4734 26.2976 12.0056C26.381 12.5882 26.4673 13.168 26.5506 13.7507C26.6369 14.3305 26.7202 14.9131 26.8036 15.493C26.8601 15.8851 26.9137 16.2745 26.9673 16.6666C27.0208 17.0476 27.0714 17.4285 27.128 17.8095C27.1994 18.3165 27.2768 18.8235 27.3512 19.3305C27.4167 19.7703 27.4821 20.2101 27.5446 20.6498C27.6042 21.0644 27.6637 21.4818 27.7202 21.8963C27.7708 22.2521 27.8185 22.6078 27.869 22.9636C27.9286 23.3837 28.1756 25.0672 28.2351 25.4874L28.3958 26.6274C28.4673 27.1428 28.5417 27.6582 28.6161 28.1708C28.6905 28.6806 28.7649 29.1933 28.8423 29.7031C28.9077 30.1456 28.9732 30.5854 29.0387 31.028C29.0565 31.154 29.0714 31.2801 29.0893 31.4089C29.0982 31.4762 29.1071 31.5434 29.1131 31.6106C28.8899 31.6694 28.6667 31.7283 28.4435 31.7871L28.4464 31.7731Z" fill="#1D1D1B"/>
<path d="M27.3214 30.8572C26.7708 31 26.2202 31.1429 25.6816 31.2717C24.6786 31.5098 23.6071 31.7423 22.6607 31.9468L21.9375 32.1037C21.7321 32.1485 21.4673 32.2241 21.1964 32.3474C17.5595 33.0028 13.8274 33.07 10.0744 32.5462V32.521L8.19643 32.1261C8.00596 32.0869 7.81846 32.0476 7.62798 32.0084L7.54762 31.9916C7.1131 31.9048 6.70536 31.8207 6.3125 31.7283C5.18155 31.4594 4.02977 31.1737 2.91667 30.8992L2.67262 30.8404C2.6875 30.7311 3.05655 27.9328 3.05655 27.9328C3.05655 27.9328 3.29762 26.1541 3.35119 25.7563L3.70536 23.0868L4.0506 20.5098L4.45238 17.4734L4.62203 16.2073C4.68155 15.7759 4.7381 15.3446 4.79465 14.9132C4.85119 14.479 4.90774 14.0476 4.96131 13.6135C5.02679 13.0981 5.09227 12.5855 5.16072 12.0728C5.22619 11.5826 5.29465 11.0897 5.3631 10.5995C5.3631 10.5995 5.4881 9.7003 5.53572 9.33895C5.59524 8.88517 5.65477 8.43419 5.71131 7.98041L5.84227 6.972C5.92262 6.35296 6 5.74792 6.08334 5.14567C6.13691 4.73671 6.27977 3.69189 6.36905 3.04764L6.625 2.99161C7.22024 2.85996 7.78274 2.73671 8.33631 2.63867V3.15688H21.5536V2.75352C22.1399 2.85716 22.7321 2.97201 23.3155 3.08405C23.372 3.47901 23.6518 5.42859 23.6518 5.42859C23.7292 5.9692 23.8095 6.50702 23.8899 7.04764C23.9821 7.66948 24.0744 8.29413 24.1637 8.91598C24.2411 9.4482 24.3155 9.97761 24.3899 10.5098L24.4167 10.7031C24.4821 11.1709 24.5476 11.6387 24.6161 12.1065C24.6994 12.6891 25.0536 15.1009 25.125 15.5939C25.1816 15.9832 25.2351 16.3726 25.2887 16.7619C25.3423 17.1429 25.3929 17.5266 25.4494 17.9076C25.5149 18.3642 25.5833 18.8207 25.6488 19.2773C25.6488 19.2773 25.8006 20.3081 25.8631 20.7479C25.9226 21.1625 25.9821 21.577 26.0387 21.9916C26.0893 22.3474 26.1369 22.7031 26.1905 23.0588C26.1905 23.0588 26.5238 25.3558 26.5566 25.5826L26.7173 26.7199C26.7887 27.2353 26.8631 27.7507 26.9375 28.2661C27.003 28.7115 27.1637 29.8011 27.1637 29.8011C27.2173 30.1541 27.2679 30.507 27.3185 30.8572H27.3214Z" fill="#EAEBF0"/>
</g>
<defs>
<clipPath id="clip0_458_107">
<rect width="30" height="36" fill="white"/>
</clipPath>
</defs>
</svg>
