<svg width="212" height="61" viewBox="0 0 212 61" fill="none" xmlns="http://www.w3.org/2000/svg">
<g clip-path="url(#clip0_768_1553)">
<path d="M27.415 11.7516C23.536 16.0311 23.4194 14.8763 17.6642 20.33C15.4476 22.4358 13.513 25.774 12.0742 28.4233C11.6173 29.2578 11.8117 30.956 12.22 31.3345C14.1255 33.0909 16.1184 31.0919 17.0711 30.7134C21.8931 27.9769 23.4388 24.7648 27.0067 20.2136C29.1163 16.7492 30.8759 13.0714 32.4411 9.3644C33.0244 7.99612 32.9077 6.22027 32.6063 4.71613C31.955 1.54289 27.9594 0.737449 24.7513 2.81413C20.3182 5.68654 17.7128 9.8302 15.1463 13.9836C11.627 19.6896 8.68137 25.6479 7.23284 32.1205C6.84398 33.8576 6.5426 35.6334 6.51344 37.3996C6.46483 39.8256 7.262 41.6888 9.66325 42.4457C16.7017 44.6679 21.2709 43.6393 29.7287 39.1754C30.5259 38.7678 30.9731 37.3607 31.1189 36.3612C32.2272 28.6659 36.0478 22.659 43.7182 19.02C45.6139 18.1175 47.5777 17.3315 49.5706 16.6134C52.1371 15.6818 54.6356 17.6808 54.8398 20.6988C55.1314 24.891 54.1592 29.5975 52.0885 33.4112C51.7191 34.0905 52.2344 34.3719 53.3621 34.2166C58.1062 33.5567 57.766 33.9061 58.9812 31.4121C60.1283 28.8696 60.6047 26.2689 61.7421 23.513C60.5464 23.4936 60.5852 23.4936 59.6325 23.4839L60.7408 20.66C63.2879 20.757 63.2879 20.9608 64.2892 17.7487C64.7364 16.319 65.4558 14.2359 66.4474 11.4993C67.0501 9.82049 67.1376 8.61718 69.5097 8.44251C71.6193 8.27754 74.5261 7.46239 76.9857 6.86074C75.2261 11.5672 73.1456 16.5843 71.454 21.1161C72.3614 21.1355 73.4405 21.1549 74.6914 21.1743C74.2636 22.6105 73.8456 23.6585 71.7749 23.6682C71.2791 23.6682 70.511 24.202 70.3263 24.6484C68.3431 29.3743 67.1279 32.4893 65.0183 37.2831C64.7169 37.9624 62.7921 40.3593 63.9684 41.485C64.7753 42.2516 65.7377 42.5621 67.1474 42.0284C70.7444 40.6213 72.8054 38.7096 73.7678 35.5267C75.0122 31.3927 76.869 27.5887 78.3759 23.4256L75.6344 23.4451C76.3927 22.5523 76.5968 22.1932 77.3065 20.7861C77.5204 20.3494 79.6494 21.0287 79.873 20.4659C80.9618 17.7293 82.4881 13.1199 83.5867 10.393C83.8492 9.74286 84.5102 9.07328 85.1227 8.8986C87.7281 8.14168 90.4113 7.60796 93.5902 6.86074C91.7431 11.6158 89.5169 16.5551 87.7573 21.0773C88.9141 21.1064 90.1002 21.087 91.2959 21.1549C90.8196 23.9788 89.9932 24.037 87.0281 24.0273C86.8045 24.0273 86.6101 24.6095 86.542 24.7745C84.2866 29.1802 82.1479 33.4985 80.4369 38.205C80.1841 38.9134 80.0869 41.4947 80.3299 42.1837C80.4757 42.6107 82.4006 42.1546 82.8089 42.0284C85.4532 41.2036 89.7599 38.3797 90.1779 39.0493C91.1793 40.2914 85.3463 43.5423 80.1258 44.5903C76.0427 45.2987 73.9914 43.6975 72.4845 40.9416C69.3931 42.8533 68.7125 43.7072 65.6113 44.2312C58.9423 45.3472 54.6356 43.2608 56.4147 36.7009C56.5022 36.3903 56.7452 35.7693 56.541 35.7887C51.7385 35.614 50.3484 35.0997 48.7248 38.6514C46.0708 43.4452 38.4199 45.9004 34.4632 44.3671C33.7535 44.0954 32.8494 43.7752 32.4119 43.3094C30.6717 41.4656 30.4384 40.8057 28.9121 41.6305C24.0902 44.2312 18.6947 45.9586 13.1922 45.4346C6.88286 45.2017 1.3318 40.3302 0.3888 34.5563C-1.56525 22.562 3.95664 12.9064 13.163 5.07518C17.5086 1.38762 22.9236 -0.388227 28.951 0.0678662C32.5091 0.339581 35.5617 3.64868 35.7659 8.14168C36.0964 15.3518 33.248 21.5819 28.2122 27.0065C26.7539 28.5785 25.0818 30.005 23.4194 31.4121C20.7557 33.6829 17.285 34.1099 13.9602 33.809C11.7631 33.6053 10.3146 31.9167 10.2368 29.8304C10.1007 26.0069 12.0451 22.6784 14.563 19.8448C17.6739 16.3417 21.407 13.3625 26.0637 11.5769C26.4234 11.4411 26.8511 11.4217 27.24 11.3537C27.2886 11.4896 27.3469 11.6158 27.3955 11.7516H27.415ZM46.0708 21.2907C46.1292 21.019 45.6917 20.922 45.5556 21.1646C43.9515 24.202 41.5697 28.8599 40.0628 32.1302C39.1004 34.2263 38.2352 36.6038 37.788 38.8843C37.5352 40.1555 37.788 42.6301 38.7407 42.8047C40.3545 43.0959 41.6572 42.7174 42.9016 40.9707C44.0001 39.4374 45.0695 37.9915 47.1499 34.2942C47.5582 33.5955 47.4513 32.2855 47.3055 31.5092C46.2069 28.8114 45.0695 25.7449 46.0708 21.2907ZM47.8499 30.073C47.9957 30.2476 48.1415 30.2379 48.2874 30.073C50.0081 26.9482 50.5817 24.6095 50.397 20.7182C50.3289 20.136 50.115 19.7381 50.047 19.6119C49.6387 18.9035 48.6665 18.9132 48.0929 19.4955C47.9179 19.6702 47.6555 20.1554 47.6166 20.33C47.3055 21.8536 46.8486 27.7149 47.8499 30.073Z" fill="black"/>
<path d="M116.66 33.7897C119.557 35.1483 122.551 34.0808 123.97 31.2278C125.225 28.7145 126.449 26.1623 127.315 23.5325C127.995 21.4655 129.133 20.2234 131.476 19.8546C132.895 19.6314 134.246 19.4373 135.986 19.1074C136.638 18.9813 137.172 19.6023 136.959 20.2234C136.463 21.6499 136.084 22.7756 135.607 23.9983C134.966 25.6383 133.109 28.8988 132.749 30.7038C134.567 28.336 137.513 24.3282 139.331 21.9604C141.683 18.8939 144.891 17.9041 148.333 18.7969C150.481 19.35 150.695 20.7668 150.277 22.1157C148.848 26.7834 147.079 30.6941 144.891 35.0707C144.483 36.0799 143.637 37.6617 143.385 38.7C143.219 39.3599 142.967 40.7379 143.414 41.1745C143.861 41.6209 145.348 41.8732 146.029 41.7083C149.208 40.961 151.454 38.5641 152.572 35.8567C154.331 31.6257 156.023 27.3656 157.51 23.0473C158.22 20.9803 159.309 19.6702 161.72 19.3306C163.586 19.0686 165.424 18.6319 167.912 18.1467C166.551 21.7372 165.453 24.7552 164.267 27.7441C162.74 31.5675 161.088 35.3424 159.639 39.1852C159.406 39.816 159.075 41.3492 159.581 41.8441C159.941 42.2032 161.574 42.1741 162.264 41.9606C166.143 40.0877 167.621 36.633 168.612 33.1492C170.265 27.3462 172.861 21.9604 179.063 19.088C181.017 18.1855 183.671 17.8847 185.829 18.2437C186.967 18.4281 188.493 20.6309 188.474 21.9022C188.435 24.5417 187.754 27.3074 185.353 29.2094C182.864 31.1793 180.307 33.0813 177.702 34.9348C176.04 36.1187 174.961 38.7097 175.942 40.3109C177.07 42.1547 179.17 42.3973 181.105 41.8732C185.1 40.7864 188.357 38.9911 189.582 34.8184C190.865 30.4515 192.634 26.2011 194.394 21.9701C194.764 21.0967 195.93 20.2525 196.941 19.9031C199.002 19.1947 201.209 18.826 203.882 18.1952C201.919 23.3287 200.159 27.9187 198.39 32.5185C198.565 32.5864 198.73 32.6543 198.905 32.7126C200.392 29.5005 201.938 26.2981 203.357 23.057C204.33 20.8444 205.584 18.8551 208.121 17.9914C208.889 17.7294 210.153 17.8847 210.746 18.3311C211.164 18.6513 211.164 20.0002 210.775 20.5436C209.064 22.9114 207.343 25.3277 205.234 27.385C203.396 29.1803 204.009 30.9173 204.932 32.4797C205.739 33.8479 207.149 35.1677 209.307 34.0032C209.472 33.9159 209.783 34.0614 210.046 34.11C207.664 37.0406 206.128 36.4778 201.909 30.7814C200.033 34.0808 198.254 37.1667 196.523 40.2721C194.491 43.9208 190.437 44.1246 187.881 40.7282C180.998 42.6787 174.144 46.8223 166.775 40.767C164.276 42.8631 154.049 46.9388 151.036 40.6796C150.131 41.0581 148.868 41.4657 147.75 42.077C144.882 43.6588 141.178 44.1343 138.106 43.7364C137.153 43.6103 136.191 41.7083 135.957 40.5632C135.384 37.7587 136.609 34.7795 137.863 32.1788C139.37 29.0444 140.507 25.6092 141.897 22.4262C141.985 21.9992 141.956 22.0477 141.664 21.8925C139.982 24.2797 137.668 26.8707 136.171 29.3452C133.712 33.3918 131.563 37.5937 129.084 41.6306C127.587 44.0664 125.448 44.6874 123.193 43.8723C120.685 42.9698 120.685 41.1551 120.918 39.2725C120.996 38.6612 121.472 37.322 121.628 36.6039C121.764 35.944 121.307 35.3133 120.646 35.2162C117.34 34.7504 116.067 34.9833 114.842 36.4972C113.374 38.3215 112.752 40.0974 110.234 42.3293C107.648 44.8039 103.273 44.8718 99.9969 44.7068C98.0331 44.6098 95.7291 41.9509 95.661 40.1265C95.3402 31.3152 99.1997 24.1147 107.609 19.7091C110.409 18.2437 111.05 18.6416 114.56 16.4097C116.329 16.3514 117.807 17.1375 118.546 17.9041C119.557 18.9424 119.907 20.2622 119.722 21.5917C119.158 25.5121 118.361 30.7038 116.67 33.78L116.66 33.7897ZM110.545 22.5135C110.905 21.1259 110.487 21.3296 109.699 22.5912C108.669 24.2506 107.959 26.2787 106.715 27.9284C104.673 32.14 103.944 33.4307 102.622 37.1279C102.262 38.1372 101.795 42.5525 104.294 43.0086C105.976 43.028 106.287 41.7762 106.86 41.1745C108.338 39.6025 109.728 37.914 110.768 36.0896C111.488 34.8378 112.12 33.683 112.003 32.3341C111.984 32.1303 111.799 32.0915 111.731 31.9071C110.73 29.4229 109.544 26.434 110.545 22.533V22.5135ZM177.099 31.9071C176.778 32.4117 176.934 32.8096 177.585 32.2662C181.124 28.9765 183.506 25.6092 185.363 21.3005C185.489 21.0191 185.411 20.6601 185.275 20.2816C185.032 19.5926 184.206 19.3015 183.574 19.6605C183.263 19.8352 183 20.0293 182.854 20.2816C180.706 24.2506 179.151 27.8896 177.09 31.9071H177.099ZM113.549 18.9618C111.595 21.2908 112.023 27.123 112.577 28.7048C112.849 29.4617 113.238 29.3549 113.432 28.6562C114.239 25.7644 115.017 22.8338 114.365 19.1753C114.297 18.7872 113.792 18.661 113.539 18.9618H113.549Z" fill="black"/>
<path d="M162.925 9.74291C162.663 7.3363 163.567 5.29843 165.754 3.93016C168.535 2.19312 172.044 3.83311 172.122 6.90932C172.161 8.34552 171.937 9.84966 171.441 11.2082C170.625 13.4499 167.757 15.1772 165.764 14.595C163.256 13.8769 162.702 11.9457 162.915 9.73321L162.925 9.74291Z" fill="black"/>
<path d="M174.466 12.9958L176.28 12.8194C176.389 13.4282 176.61 13.8754 176.941 14.1609C177.277 14.4464 177.729 14.5892 178.295 14.5892C178.896 14.5892 179.347 14.4632 179.649 14.2113C179.956 13.9552 180.109 13.6571 180.109 13.317C180.109 13.0986 180.044 12.9139 179.914 12.7627C179.788 12.6074 179.566 12.473 179.246 12.3596C179.028 12.2841 178.531 12.1497 177.754 11.9565C176.754 11.7088 176.053 11.4044 175.65 11.0433C175.083 10.5352 174.8 9.91592 174.8 9.18533C174.8 8.71506 174.932 8.27629 175.197 7.869C175.465 7.45752 175.85 7.14471 176.349 6.93057C176.853 6.71643 177.46 6.60936 178.169 6.60936C179.328 6.60936 180.2 6.86339 180.783 7.37145C181.371 7.8795 181.68 8.55761 181.709 9.40577L179.845 9.48765C179.765 9.01318 179.593 8.67308 179.328 8.46733C179.068 8.25739 178.675 8.15242 178.151 8.15242C177.609 8.15242 177.185 8.26369 176.878 8.48623C176.681 8.62899 176.582 8.82003 176.582 9.05937C176.582 9.27771 176.675 9.46455 176.859 9.61991C177.095 9.81725 177.666 10.023 178.573 10.2371C179.479 10.4513 180.149 10.6738 180.582 10.9047C181.018 11.1315 181.358 11.4443 181.602 11.8432C181.85 12.2379 181.974 12.727 181.974 13.3107C181.974 13.8397 181.827 14.3352 181.533 14.797C181.239 15.2589 180.823 15.6032 180.286 15.8299C179.748 16.0525 179.078 16.1638 178.276 16.1638C177.109 16.1638 176.213 15.895 175.587 15.3576C174.962 14.8159 174.588 14.0287 174.466 12.9958ZM183.529 16V14.2302H185.299V16H183.529ZM187.138 16V6.76682H191.062C192.049 6.76682 192.764 6.85079 193.21 7.01875C193.659 7.1825 194.018 7.47642 194.287 7.9005C194.555 8.32458 194.69 8.80954 194.69 9.35538C194.69 10.0482 194.486 10.6213 194.079 11.0748C193.671 11.5241 193.063 11.8075 192.252 11.9251C192.655 12.1602 192.987 12.4184 193.247 12.6997C193.512 12.9811 193.867 13.4807 194.312 14.1987L195.439 16H193.21L191.862 13.9909C191.383 13.2729 191.056 12.8215 190.879 12.6368C190.703 12.4478 190.516 12.3197 190.319 12.2526C190.121 12.1812 189.809 12.1455 189.38 12.1455H189.002V16H187.138ZM189.002 10.6717H190.382C191.276 10.6717 191.834 10.6339 192.057 10.5583C192.28 10.4828 192.454 10.3526 192.58 10.1679C192.706 9.98311 192.769 9.75217 192.769 9.47505C192.769 9.16434 192.685 8.91451 192.517 8.72556C192.353 8.53242 192.12 8.41065 191.818 8.36027C191.666 8.33927 191.213 8.32877 190.457 8.32877H189.002V10.6717ZM196.441 16V14.2302H198.21V16H196.441ZM200.025 16V7.48047H201.759V14.5527H206.071V16H200.025Z" fill="#1D1D1B"/>
<path d="M47.2877 49.7644L46.9793 51.2264H43.2843L42.5361 54.7558H40.7886L42.5704 46.3492H48.5384L48.2243 47.8283H44.0039L43.5927 49.7644H47.2877ZM51.9821 53.8763C51.9631 53.8953 51.9136 53.9524 51.8337 54.0476C51.7537 54.1428 51.6642 54.2266 51.5652 54.2989C51.2607 54.5274 50.9789 54.6835 50.72 54.7672C50.4649 54.851 50.1775 54.8929 49.8576 54.8929C48.9363 54.8929 48.3861 54.5616 48.2072 53.8991C48.1082 53.5336 48.1348 52.9949 48.2871 52.2829L49.081 48.5308H50.7486L49.9547 52.2829C49.8786 52.637 49.8634 52.9035 49.909 53.0825C49.989 53.3985 50.246 53.5565 50.68 53.5565C51.2359 53.5565 51.6642 53.3319 51.965 52.8826C52.1249 52.6389 52.2468 52.3172 52.3305 51.9174L53.0501 48.5308H54.7006L53.3813 54.7558H51.7994L51.9821 53.8763ZM59.732 50.9694C59.8043 50.642 59.8138 50.3907 59.7605 50.2155C59.6692 49.8957 59.3988 49.7358 58.9496 49.7358C58.3975 49.7358 57.9692 49.97 57.6646 50.4383C57.5047 50.6858 57.3848 51.0018 57.3048 51.3863L56.5909 54.7558H54.969L56.2882 48.5422H57.8588L57.6646 49.4503C57.9425 49.1305 58.19 48.9001 58.407 48.7592C58.7954 48.508 59.2466 48.3823 59.7605 48.3823C60.404 48.3823 60.8932 48.5517 61.2283 48.8906C61.5671 49.2256 61.6547 49.7834 61.491 50.5639L60.6001 54.7558H58.9324L59.732 50.9694ZM66.7108 48.6279C66.9659 48.7954 67.1544 49.0257 67.2762 49.3189L67.9044 46.3492H69.5549L67.7731 54.7558H66.1911L66.3739 53.8934C66.0617 54.2627 65.7381 54.5312 65.403 54.6987C65.0718 54.8662 64.6853 54.95 64.2437 54.95C63.5165 54.95 62.9663 54.6568 62.5932 54.0705C62.2239 53.4803 62.1363 52.7246 62.3305 51.8032C62.5589 50.741 62.9816 49.9052 63.5983 49.2961C64.2189 48.6869 64.9385 48.3823 65.7571 48.3823C66.134 48.3823 66.4519 48.4642 66.7108 48.6279ZM65.8199 49.8044C65.344 49.8044 64.9557 49.9852 64.6549 50.3469C64.3579 50.7048 64.1523 51.1502 64.0381 51.6833C63.9163 52.2582 63.9315 52.7189 64.0838 53.0653C64.2361 53.408 64.5426 53.5793 65.0033 53.5793C65.4639 53.5793 65.8504 53.408 66.1626 53.0653C66.4786 52.7227 66.6937 52.2791 66.8079 51.7347C66.9678 50.9732 66.8917 50.4288 66.5795 50.1013C66.3853 49.9033 66.1321 49.8044 65.8199 49.8044ZM72.5018 50.9694C72.814 50.9313 73.0406 50.8837 73.1814 50.8266C73.4327 50.7276 73.5812 50.5734 73.6269 50.364C73.6802 50.1089 73.6288 49.9338 73.4727 49.8386C73.3166 49.7396 73.0672 49.6901 72.7245 49.6901C72.34 49.6901 72.0468 49.7853 71.845 49.9757C71.7042 50.1166 71.588 50.3069 71.4967 50.5468H69.9261C70.0784 50.0023 70.3259 49.555 70.6686 49.2047C71.2168 48.6564 72.0145 48.3823 73.0615 48.3823C73.743 48.3823 74.3198 48.5175 74.7919 48.7878C75.264 49.0581 75.4201 49.5683 75.2602 50.3183L74.6492 53.1738C74.6073 53.3718 74.5616 53.6117 74.5121 53.8934C74.4778 54.1066 74.4778 54.2513 74.5121 54.3275C74.5502 54.4036 74.6168 54.4664 74.712 54.5159L74.6663 54.7558H72.8959C72.873 54.6302 72.8635 54.5121 72.8673 54.4017C72.8711 54.2913 72.8825 54.1657 72.9016 54.0248C72.6236 54.2685 72.321 54.476 71.9935 54.6473C71.5976 54.8491 71.1788 54.95 70.7371 54.95C70.1736 54.95 69.7415 54.7901 69.4407 54.4702C69.1437 54.1466 69.0581 53.6897 69.1837 53.0996C69.3474 52.3343 69.7605 51.7804 70.423 51.4377C70.7847 51.2511 71.2892 51.1179 71.9364 51.0379L72.5018 50.9694ZM72.5304 51.9974L72.1534 52.0659C71.7955 52.1268 71.5328 52.2011 71.3653 52.2886C71.0836 52.4371 70.9103 52.6675 70.8456 52.9797C70.7847 53.2576 70.8171 53.4594 70.9427 53.585C71.0722 53.7069 71.2473 53.7678 71.4681 53.7678C71.8184 53.7678 72.163 53.665 72.5018 53.4594C72.8407 53.2538 73.0748 52.8788 73.2043 52.3343L73.3299 51.729C73.2157 51.7937 73.1015 51.847 72.9872 51.8889C72.873 51.9269 72.7207 51.9631 72.5304 51.9974ZM80.3716 48.6279C80.6267 48.7954 80.8151 49.0257 80.937 49.3189L81.5652 46.3492H83.2157L81.4338 54.7558H79.8519L80.0346 53.8934C79.7224 54.2627 79.3988 54.5312 79.0638 54.6987C78.7325 54.8662 78.3461 54.95 77.9044 54.95C77.1772 54.95 76.6271 54.6568 76.2539 54.0705C75.8846 53.4803 75.7971 52.7246 75.9912 51.8032C76.2197 50.741 76.6423 49.9052 77.2591 49.2961C77.8797 48.6869 78.5993 48.3823 79.4178 48.3823C79.7948 48.3823 80.1127 48.4642 80.3716 48.6279ZM79.4807 49.8044C79.0048 49.8044 78.6164 49.9852 78.3156 50.3469C78.0186 50.7048 77.8131 51.1502 77.6988 51.6833C77.577 52.2582 77.5922 52.7189 77.7445 53.0653C77.8968 53.408 78.2033 53.5793 78.664 53.5793C79.1247 53.5793 79.5111 53.408 79.8233 53.0653C80.1393 52.7227 80.3545 52.2791 80.4687 51.7347C80.6286 50.9732 80.5524 50.4288 80.2402 50.1013C80.0461 49.9033 79.7929 49.8044 79.4807 49.8044ZM86.1626 50.9694C86.4748 50.9313 86.7013 50.8837 86.8422 50.8266C87.0934 50.7276 87.2419 50.5734 87.2876 50.364C87.3409 50.1089 87.2895 49.9338 87.1334 49.8386C86.9773 49.7396 86.7279 49.6901 86.3853 49.6901C86.0007 49.6901 85.7076 49.7853 85.5058 49.9757C85.3649 50.1166 85.2488 50.3069 85.1574 50.5468H83.5869C83.7392 50.0023 83.9867 49.555 84.3293 49.2047C84.8776 48.6564 85.6752 48.3823 86.7222 48.3823C87.4037 48.3823 87.9806 48.5175 88.4527 48.7878C88.9248 49.0581 89.0809 49.5683 88.921 50.3183L88.3099 53.1738C88.268 53.3718 88.2223 53.6117 88.1728 53.8934C88.1386 54.1066 88.1386 54.2513 88.1728 54.3275C88.2109 54.4036 88.2775 54.4664 88.3727 54.5159L88.327 54.7558H86.5566C86.5338 54.6302 86.5243 54.5121 86.5281 54.4017C86.5319 54.2913 86.5433 54.1657 86.5623 54.0248C86.2844 54.2685 85.9817 54.476 85.6543 54.6473C85.2583 54.8491 84.8395 54.95 84.3979 54.95C83.8344 54.95 83.4022 54.7901 83.1015 54.4702C82.8045 54.1466 82.7188 53.6897 82.8445 53.0996C83.0082 52.3343 83.4213 51.7804 84.0837 51.4377C84.4454 51.2511 84.9499 51.1179 85.5972 51.0379L86.1626 50.9694ZM86.1911 51.9974L85.8142 52.0659C85.4563 52.1268 85.1936 52.2011 85.0261 52.2886C84.7443 52.4371 84.5711 52.6675 84.5064 52.9797C84.4454 53.2576 84.4778 53.4594 84.6034 53.585C84.7329 53.7069 84.908 53.7678 85.1289 53.7678C85.4791 53.7678 85.8237 53.665 86.1626 53.4594C86.5014 53.2538 86.7356 52.8788 86.865 52.3343L86.9907 51.729C86.8764 51.7937 86.7622 51.847 86.648 51.8889C86.5338 51.9269 86.3815 51.9631 86.1911 51.9974ZM96.3453 53.3566C96.4785 53.2538 96.6099 53.111 96.7393 52.9283H98.4013C98.2794 53.2976 98.0072 53.6726 97.5846 54.0533C96.9221 54.6587 96.1111 54.9614 95.1517 54.9614C94.3598 54.9614 93.7144 54.7063 93.2157 54.1961C92.7207 53.6859 92.5951 52.8559 92.8387 51.7061C93.0672 50.6286 93.5145 49.8024 94.1808 49.2275C94.8509 48.6526 95.6219 48.3652 96.4938 48.3652C97.0116 48.3652 97.457 48.4623 97.8302 48.6564C98.2071 48.8506 98.485 49.1571 98.664 49.5759C98.8315 49.9452 98.8981 50.3735 98.8638 50.8609C98.8486 51.1464 98.7801 51.5576 98.6582 52.0945H94.3978C94.2874 52.7189 94.3902 53.1567 94.7062 53.408C94.8966 53.5641 95.1498 53.6422 95.4658 53.6422C95.8008 53.6422 96.094 53.547 96.3453 53.3566ZM96.2082 49.7073C95.8313 49.7073 95.5134 49.8253 95.2545 50.0613C94.9994 50.2974 94.8033 50.6172 94.6663 51.0208H97.1962C97.261 50.5906 97.1981 50.265 97.0078 50.0442C96.8212 49.8196 96.5547 49.7073 96.2082 49.7073ZM103.969 50.9694C104.042 50.642 104.051 50.3907 103.998 50.2155C103.907 49.8957 103.636 49.7358 103.187 49.7358C102.635 49.7358 102.207 49.97 101.902 50.4383C101.742 50.6858 101.622 51.0018 101.542 51.3863L100.828 54.7558H99.2065L100.526 48.5422H102.096L101.902 49.4503C102.18 49.1305 102.428 48.9001 102.645 48.7592C103.033 48.508 103.484 48.3823 103.998 48.3823C104.641 48.3823 105.131 48.5517 105.466 48.8906C105.805 49.2256 105.892 49.7834 105.728 50.5639L104.838 54.7558H103.17L103.969 50.9694ZM113.261 53.3566C113.395 53.2538 113.526 53.111 113.655 52.9283H115.317C115.195 53.2976 114.923 53.6726 114.501 54.0533C113.838 54.6587 113.027 54.9614 112.068 54.9614C111.276 54.9614 110.63 54.7063 110.132 54.1961C109.637 53.6859 109.511 52.8559 109.755 51.7061C109.983 50.6286 110.431 49.8024 111.097 49.2275C111.767 48.6526 112.538 48.3652 113.41 48.3652C113.928 48.3652 114.373 48.4623 114.746 48.6564C115.123 48.8506 115.401 49.1571 115.58 49.5759C115.747 49.9452 115.814 50.3735 115.78 50.8609C115.765 51.1464 115.696 51.5576 115.574 52.0945H111.314C111.203 52.7189 111.306 53.1567 111.622 53.408C111.813 53.5641 112.066 53.6422 112.382 53.6422C112.717 53.6422 113.01 53.547 113.261 53.3566ZM113.124 49.7073C112.747 49.7073 112.429 49.8253 112.171 50.0613C111.915 50.2974 111.719 50.6172 111.582 51.0208H114.112C114.177 50.5906 114.114 50.265 113.924 50.0442C113.737 49.8196 113.471 49.7073 113.124 49.7073ZM116.145 54.7558L117.933 46.3378H119.561L117.773 54.7558H116.145ZM125.866 50.9694C126.178 50.9313 126.404 50.8837 126.545 50.8266C126.796 50.7276 126.945 50.5734 126.991 50.364C127.044 50.1089 126.992 49.9338 126.836 49.8386C126.68 49.7396 126.431 49.6901 126.088 49.6901C125.704 49.6901 125.411 49.7853 125.209 49.9757C125.068 50.1166 124.952 50.3069 124.86 50.5468H123.29C123.442 50.0023 123.69 49.555 124.032 49.2047C124.581 48.6564 125.378 48.3823 126.425 48.3823C127.107 48.3823 127.684 48.5175 128.156 48.7878C128.628 49.0581 128.784 49.5683 128.624 50.3183L128.013 53.1738C127.971 53.3718 127.925 53.6117 127.876 53.8934C127.842 54.1066 127.842 54.2513 127.876 54.3275C127.914 54.4036 127.98 54.4664 128.076 54.5159L128.03 54.7558H126.26C126.237 54.6302 126.227 54.5121 126.231 54.4017C126.235 54.2913 126.246 54.1657 126.265 54.0248C125.987 54.2685 125.685 54.476 125.357 54.6473C124.961 54.8491 124.542 54.95 124.101 54.95C123.537 54.95 123.105 54.7901 122.804 54.4702C122.507 54.1466 122.422 53.6897 122.547 53.0996C122.711 52.3343 123.124 51.7804 123.787 51.4377C124.148 51.2511 124.653 51.1179 125.3 51.0379L125.866 50.9694ZM125.894 51.9974L125.517 52.0659C125.159 52.1268 124.897 52.2011 124.729 52.2886C124.447 52.4371 124.274 52.6675 124.209 52.9797C124.148 53.2576 124.181 53.4594 124.306 53.585C124.436 53.7069 124.611 53.7678 124.832 53.7678C125.182 53.7678 125.527 53.665 125.866 53.4594C126.204 53.2538 126.439 52.8788 126.568 52.3343L126.694 51.729C126.579 51.7937 126.465 51.847 126.351 51.8889C126.237 51.9269 126.084 51.9631 125.894 51.9974ZM133.907 50.9694C133.979 50.642 133.988 50.3907 133.935 50.2155C133.844 49.8957 133.573 49.7358 133.124 49.7358C132.572 49.7358 132.144 49.97 131.839 50.4383C131.679 50.6858 131.559 51.0018 131.479 51.3863L130.766 54.7558H129.144L130.463 48.5422H132.033L131.839 49.4503C132.117 49.1305 132.365 48.9001 132.582 48.7592C132.97 48.508 133.421 48.3823 133.935 48.3823C134.579 48.3823 135.068 48.5517 135.403 48.8906C135.742 49.2256 135.829 49.7834 135.666 50.5639L134.775 54.7558H133.107L133.907 50.9694ZM134.089 46.4863C134.238 46.5396 134.335 46.5738 134.381 46.5891C134.43 46.6043 134.485 46.6119 134.546 46.6119C134.729 46.6119 134.866 46.5643 134.957 46.4691C135.053 46.3701 135.133 46.254 135.197 46.1207H135.957C135.805 46.5205 135.597 46.8556 135.334 47.1259C135.072 47.3962 134.744 47.5314 134.352 47.5314C134.234 47.5314 134.074 47.5028 133.872 47.4457C133.751 47.4152 133.636 47.381 133.53 47.3429L133.101 47.1887C133.04 47.1659 132.98 47.1506 132.919 47.143C132.861 47.1316 132.802 47.1259 132.742 47.1259C132.597 47.1259 132.471 47.1678 132.365 47.2515C132.254 47.3391 132.163 47.459 132.091 47.6113H131.348C131.516 47.2192 131.689 46.9222 131.868 46.7204C132.188 46.3587 132.587 46.1779 133.067 46.1779C133.17 46.1779 133.267 46.1893 133.358 46.2121C133.454 46.235 133.533 46.2597 133.598 46.2864L134.089 46.4863ZM142.627 49.3189C143.012 49.9776 143.109 50.7562 142.919 51.6547C142.724 52.5685 142.294 53.3509 141.628 54.0019C140.965 54.6492 140.099 54.9728 139.029 54.9728C137.96 54.9728 137.23 54.6492 136.842 54.0019C136.458 53.3509 136.362 52.5685 136.557 51.6547C136.747 50.7562 137.175 49.9776 137.841 49.3189C138.508 48.6602 139.376 48.3309 140.446 48.3309C141.516 48.3309 142.243 48.6602 142.627 49.3189ZM140.143 49.7073C139.667 49.7073 139.265 49.8767 138.938 50.2155C138.611 50.5506 138.38 51.0303 138.247 51.6547C138.114 52.2791 138.138 52.7608 138.321 53.0996C138.508 53.4385 138.839 53.6079 139.315 53.6079C139.791 53.6079 140.193 53.4385 140.52 53.0996C140.847 52.7608 141.078 52.2791 141.211 51.6547C141.344 51.0303 141.318 50.5506 141.131 50.2155C140.948 49.8767 140.619 49.7073 140.143 49.7073ZM150.623 46.8061C150.699 46.6576 150.745 46.5472 150.76 46.4748H152.113L150.354 54.7558H148.687L149.897 49.0448H147.95L148.184 47.9368C148.706 47.914 149.073 47.8797 149.286 47.8341C149.629 47.7617 149.926 47.617 150.177 47.4C150.352 47.2515 150.501 47.0535 150.623 46.8061ZM157.099 52.7684C157.289 52.4409 157.466 51.9631 157.63 51.3349C157.44 51.5215 157.251 51.6642 157.065 51.7632C156.722 51.946 156.328 52.0374 155.883 52.0374C155.224 52.0374 154.687 51.8108 154.272 51.3577C153.857 50.9009 153.741 50.2441 153.924 49.3874C154.114 48.5003 154.523 47.7827 155.152 47.2344C155.78 46.6823 156.503 46.4063 157.322 46.4063C158.582 46.4063 159.328 46.9641 159.56 48.0796C159.694 48.7116 159.65 49.5435 159.429 50.5753C159.216 51.5767 158.911 52.4124 158.515 53.0825C157.758 54.3579 156.728 54.9957 155.426 54.9957C154.805 54.9957 154.285 54.8129 153.867 54.4474C153.452 54.0781 153.282 53.5413 153.358 52.8369H154.98C154.965 53.0806 155.024 53.2785 155.157 53.4308C155.294 53.5831 155.502 53.6593 155.78 53.6593C156.317 53.6593 156.756 53.3623 157.099 52.7684ZM155.608 49.239C155.502 49.7301 155.523 50.0994 155.671 50.3469C155.82 50.5906 156.102 50.7124 156.517 50.7124C156.741 50.7124 156.966 50.6477 157.19 50.5182C157.609 50.2822 157.881 49.8729 158.007 49.2904C158.106 48.8221 158.076 48.4508 157.916 48.1767C157.756 47.9026 157.485 47.7655 157.105 47.7655C156.827 47.7655 156.572 47.8436 156.339 47.9997C155.974 48.2433 155.73 48.6564 155.608 49.239ZM162.462 48.6222C162.271 48.9496 162.085 49.4331 161.902 50.0728C162.153 49.8329 162.424 49.6578 162.713 49.5474C163.006 49.4369 163.324 49.3817 163.667 49.3817C164.402 49.3817 164.95 49.6311 165.311 50.1299C165.677 50.6286 165.776 51.2664 165.608 52.0431C165.445 52.816 165.07 53.4975 164.483 54.0876C163.897 54.6777 163.118 54.9728 162.148 54.9728C161.104 54.9728 160.429 54.5369 160.12 53.665C159.88 52.9835 159.875 52.104 160.103 51.0265C160.24 50.3945 160.377 49.8805 160.514 49.4845C160.758 48.7802 161.066 48.1938 161.439 47.7255C161.759 47.3258 162.136 47.0041 162.57 46.7604C163.008 46.5167 163.493 46.3949 164.026 46.3949C164.796 46.3949 165.367 46.5929 165.74 46.9888C166.113 47.381 166.258 47.9045 166.174 48.5594H164.552C164.582 48.4261 164.561 48.2795 164.489 48.1196C164.371 47.8607 164.135 47.7313 163.781 47.7313C163.252 47.7313 162.812 48.0282 162.462 48.6222ZM162.239 50.9351C161.866 51.1826 161.62 51.5824 161.502 52.1344C161.407 52.5799 161.449 52.9435 161.628 53.2252C161.811 53.507 162.087 53.6479 162.456 53.6479C162.818 53.6479 163.13 53.5127 163.393 53.2424C163.659 52.9683 163.838 52.6142 163.929 52.1801C164.032 51.6966 163.992 51.3273 163.809 51.0722C163.631 50.8133 163.37 50.6838 163.027 50.6838C162.749 50.6838 162.486 50.7676 162.239 50.9351ZM168.544 49.7758C168.829 49.6121 169.048 49.5036 169.201 49.4503C169.456 49.3627 169.753 49.3189 170.092 49.3189C170.777 49.3189 171.325 49.5493 171.736 50.0099C172.148 50.4706 172.26 51.1407 172.073 52.0202C171.913 52.7855 171.523 53.4689 170.903 54.0705C170.282 54.672 169.482 54.9728 168.504 54.9728C167.716 54.9728 167.114 54.7615 166.699 54.3389C166.284 53.9163 166.13 53.3166 166.237 52.5399H167.859C167.847 52.894 167.912 53.1681 168.053 53.3623C168.197 53.5527 168.445 53.6479 168.795 53.6479C169.199 53.6479 169.536 53.507 169.806 53.2252C170.076 52.9397 170.257 52.5818 170.349 52.1516C170.44 51.729 170.417 51.373 170.28 51.0836C170.147 50.7905 169.871 50.6439 169.452 50.6439C169.254 50.6439 169.077 50.6686 168.921 50.7181C168.647 50.8095 168.418 50.9789 168.236 51.2264L166.785 51.1579L168.344 46.5833H172.907L172.61 47.9654H169.224L168.544 49.7758Z" fill="#1D1D1B"/>
</g>
<defs>
<clipPath id="clip0_768_1553">
<rect width="212" height="61" fill="white"/>
</clipPath>
</defs>
</svg>
