<svg width="72" height="72" viewBox="0 0 72 72" fill="none" xmlns="http://www.w3.org/2000/svg">
<path d="M45.9 50.1L50.1 45.9L39 34.8V21H33V37.2L45.9 50.1ZM36 66C31.85 66 27.95 65.2125 24.3 63.6375C20.65 62.0625 17.475 59.925 14.775 57.225C12.075 54.525 9.9375 51.35 8.3625 47.7C6.7875 44.05 6 40.15 6 36C6 31.85 6.7875 27.95 8.3625 24.3C9.9375 20.65 12.075 17.475 14.775 14.775C17.475 12.075 20.65 9.9375 24.3 8.3625C27.95 6.7875 31.85 6 36 6C40.15 6 44.05 6.7875 47.7 8.3625C51.35 9.9375 54.525 12.075 57.225 14.775C59.925 17.475 62.0625 20.65 63.6375 24.3C65.2125 27.95 66 31.85 66 36C66 40.15 65.2125 44.05 63.6375 47.7C62.0625 51.35 59.925 54.525 57.225 57.225C54.525 59.925 51.35 62.0625 47.7 63.6375C44.05 65.2125 40.15 66 36 66ZM36 60C42.65 60 48.3125 57.6625 52.9875 52.9875C57.6625 48.3125 60 42.65 60 36C60 29.35 57.6625 23.6875 52.9875 19.0125C48.3125 14.3375 42.65 12 36 12C29.35 12 23.6875 14.3375 19.0125 19.0125C14.3375 23.6875 12 29.35 12 36C12 42.65 14.3375 48.3125 19.0125 52.9875C23.6875 57.6625 29.35 60 36 60Z" fill="#1D1B20"/>
</svg>
